<svg xmlns="http://www.w3.org/2000/svg" width="2087" height="319" fill="none" viewBox="0 0 2087 319"><path fill="#818CF8" d="M23 167.628C23 171.385 25.1064 174.825 28.4529 176.534L269.453 299.573C276.107 302.97 284 298.137 284 290.667V261.276C284 257.438 281.804 253.94 278.349 252.271L85.1269 158.957C84.6921 158.747 84.2381 159.207 84.4536 159.639V159.639C84.6922 160.117 85.413 159.948 85.413 159.413V155.587C85.413 155.052 84.6922 154.883 84.4536 155.361V155.361C84.2381 155.793 84.6921 156.253 85.1269 156.043L278.349 62.7292C281.804 61.0604 284 57.5616 284 53.7243V24.3332C284 16.8627 276.107 12.0299 269.453 15.4268L28.453 138.466C25.1064 140.175 23 143.615 23 147.372V167.628Z"/><path fill="#4338CA" d="M-7.12657e-06 167.934C-7.12657e-06 171.696 2.11169 175.14 5.46484 176.846L260.465 306.604C267.118 309.989 275 305.156 275 297.691V265.676C275 261.834 272.799 258.332 269.337 256.666L65.459 158.53C65.0011 158.31 64.5238 158.794 64.7512 159.249V159.249C65.0029 159.752 65.7608 159.573 65.7608 159.01V154.99C65.7608 154.427 65.0029 154.248 64.7512 154.751V154.751C64.5238 155.206 65.0011 155.69 65.459 155.47L269.337 57.3345C272.799 55.6682 275 52.1659 275 48.324V16.3088C275 8.84407 267.118 4.01092 260.465 7.39627L5.46484 137.154C2.11169 138.86 -7.12657e-06 142.304 -7.12657e-06 146.066V167.934Z"/><path fill="#818CF8" d="M2064 167.628C2064 171.385 2061.89 174.825 2058.55 176.534L1817.55 299.573C1810.89 302.97 1803 298.137 1803 290.667V261.276C1803 257.438 1805.2 253.94 1808.65 252.271L2001.87 158.957C2002.31 158.747 2002.76 159.207 2002.55 159.639V159.639C2002.31 160.117 2001.59 159.948 2001.59 159.413V155.587C2001.59 155.052 2002.31 154.883 2002.55 155.361V155.361C2002.76 155.793 2002.31 156.253 2001.87 156.043L1808.65 62.7292C1805.2 61.0604 1803 57.5616 1803 53.7243V24.3332C1803 16.8627 1810.89 12.0299 1817.55 15.4268L2058.55 138.466C2061.89 140.175 2064 143.615 2064 147.372V167.628Z"/><path fill="#4338CA" d="M2087 167.934C2087 171.696 2084.89 175.14 2081.54 176.846L1826.54 306.604C1819.88 309.989 1812 305.156 1812 297.691V265.676C1812 261.834 1814.2 258.332 1817.66 256.666L2021.54 158.53C2022 158.31 2022.48 158.794 2022.25 159.249V159.249C2022 159.752 2021.24 159.573 2021.24 159.01V154.99C2021.24 154.427 2022 154.248 2022.25 154.751V154.751C2022.48 155.206 2022 155.69 2021.54 155.47L1817.66 57.3345C1814.2 55.6682 1812 52.1659 1812 48.324V16.3088C1812 8.84407 1819.88 4.01092 1826.54 7.39627L2081.54 137.154C2084.89 138.86 2087 142.304 2087 146.066V167.934Z"/><path fill="#818CF8" d="M1723.94 9C1730.52 9 1735.31 15.2543 1733.59 21.6109L1658.67 298.611C1657.49 302.972 1653.53 306 1649.01 306H1625.06C1618.48 306 1613.69 299.746 1615.41 293.389L1690.33 16.3891C1691.51 12.0285 1695.47 9 1699.99 9H1723.94Z"/><path fill="#4338CA" d="M1734.93 4C1741.52 4 1746.3 10.2574 1744.58 16.6149L1667.1 302.615C1665.92 306.974 1661.96 310 1657.45 310H1632.07C1625.48 310 1620.7 303.743 1622.42 297.385L1699.9 11.3851C1701.08 7.02642 1705.04 4 1709.55 4H1734.93Z"/><g filter="url(#filter0_d_626_92)"><path fill="#1D4ED8" d="M354 2H459.768C483.772 2 502.74 7.99655 516.671 19.9896C530.601 31.7686 537.567 49.8653 537.567 74.2798C537.567 89.6995 534.245 103.085 527.601 114.435C521.171 125.572 512.063 134.138 500.275 140.135C488.701 146.131 475.199 149.13 459.768 149.13H400.294V247.109H354V2ZM453.338 108.653C465.769 108.653 475.199 105.869 481.629 100.301C488.273 94.7323 491.595 86.5941 491.595 75.886C491.595 65.3921 488.273 57.361 481.629 51.7927C474.985 46.2245 465.555 43.4404 453.338 43.4404H400.294V108.653H453.338Z"/><path fill="#1D4ED8" d="M645.389 250.642C627.172 250.642 611.098 246.68 597.167 238.756C583.236 230.832 572.413 219.91 564.697 205.99C557.196 191.855 553.445 175.9 553.445 158.124C553.445 141.634 556.767 126.214 563.411 111.865C570.269 97.3022 580.45 85.5233 593.952 76.5285C607.669 67.5337 624.386 63.0363 644.103 63.0363C660.392 63.0363 675.395 66.4629 689.111 73.3161C702.828 79.9551 713.865 90.342 722.224 104.477C730.582 118.397 734.762 135.744 734.762 156.518V165.834H620.314C619.028 165.834 615.491 165.834 609.705 165.834C603.918 165.834 599.31 165.513 595.881 164.87L594.595 169.689C596.31 170.117 597.596 170.974 598.453 172.259C599.524 173.544 600.382 175.364 601.025 177.72C602.739 182.218 604.132 185.323 605.204 187.036C609.49 195.389 615.17 201.921 622.243 206.632C629.53 211.13 637.781 213.378 646.997 213.378C656.856 213.378 665.321 210.915 672.394 205.99C679.467 200.85 684.503 194.318 687.504 186.394H731.868C726.082 205.454 715.901 220.981 701.327 232.974C686.754 244.753 668.108 250.642 645.389 250.642ZM599.739 138.207C602.954 136.28 605.847 134.995 608.419 134.352C610.991 133.71 613.884 133.389 617.099 133.389H673.037C676.466 133.389 679.467 133.71 682.038 134.352C684.825 134.995 687.932 136.28 691.362 138.207L693.933 133.71C692.433 132.853 691.362 132.104 690.719 131.461C690.076 130.604 689.54 129.748 689.111 128.891C688.897 128.035 688.79 127.499 688.79 127.285C687.932 123.644 686.218 120.111 683.646 116.684C679.574 110.473 674.216 105.762 667.572 102.549C660.928 99.1226 653.534 97.4093 645.389 97.4093C637.245 97.4093 629.851 99.0155 623.207 102.228C616.777 105.44 611.527 110.259 607.454 116.684C604.668 120.111 602.846 123.644 601.989 127.285C601.989 127.499 601.775 128.142 601.346 129.212C600.918 130.069 600.382 130.926 599.739 131.782C599.096 132.425 598.131 133.067 596.845 133.71L599.739 138.207Z"/><path fill="#1D4ED8" d="M861.313 63.3575C876.959 63.3575 890.782 67.3195 902.784 75.2435C914.787 83.1675 924.11 94.304 930.754 108.653C937.398 122.788 940.719 138.957 940.719 157.161C940.719 175.364 937.398 191.641 930.754 205.99C924.11 220.124 914.787 231.154 902.784 239.078C890.782 247.002 876.959 250.964 861.313 250.964C849.74 250.964 839.988 248.929 832.058 244.86C824.128 240.577 816.734 233.402 809.876 223.337L805.375 226.549C807.09 228.905 808.268 231.154 808.911 233.295C809.769 235.437 810.197 238.114 810.197 241.326V312H766.797V66.8912H810.197V72.6736C810.197 75.886 809.769 78.6701 808.911 81.0259C808.268 83.1675 807.09 85.4162 805.375 87.772L809.876 90.6632C816.734 80.5976 824.128 73.5302 832.058 69.4611C839.988 65.3921 849.74 63.3575 861.313 63.3575ZM851.347 100.622C837.631 100.622 826.379 105.869 817.591 116.363C809.019 126.857 804.732 140.456 804.732 157.161C804.732 173.865 809.019 187.465 817.591 197.959C826.379 208.453 837.631 213.699 851.347 213.699C865.064 213.699 876.101 208.453 884.46 197.959C892.818 187.25 896.998 173.651 896.998 157.161C896.998 140.67 892.818 127.178 884.46 116.684C876.101 105.976 865.064 100.622 851.347 100.622Z"/><path fill="#1D4ED8" d="M975.304 247.109V2H1021.6V103.513H1126.72V2H1173.02V247.109H1126.72V144.953H1021.6V247.109H975.304Z"/><path fill="#1D4ED8" d="M1277.8 250.642C1249.73 250.642 1230.98 240.684 1221.55 220.767C1218.12 213.699 1215.97 206.525 1215.12 199.244C1214.26 191.748 1213.83 182.218 1213.83 170.653V66.8912H1257.23V170.974C1257.23 180.183 1257.87 187.679 1259.16 193.461C1260.66 199.029 1262.91 203.527 1265.91 206.953C1270.62 212.307 1278.23 214.984 1288.74 214.984C1300.95 214.984 1310.17 211.344 1316.38 204.062C1320.03 199.993 1322.6 194.425 1324.1 187.358C1325.81 180.076 1326.67 170.439 1326.67 158.446V66.8912H1370.07V247.109H1326.67V241.326C1326.67 238.114 1326.99 235.437 1327.63 233.295C1328.49 230.94 1329.78 228.584 1331.49 226.228L1326.99 223.337C1320.13 233.188 1312.85 240.256 1305.13 244.539C1297.42 248.608 1288.31 250.642 1277.8 250.642Z"/><path fill="#1D4ED8" d="M1504.59 250.642C1493.02 250.642 1483.27 248.608 1475.34 244.539C1467.41 240.47 1460.01 233.402 1453.16 223.337L1448.66 226.228C1450.37 228.584 1451.55 230.94 1452.19 233.295C1453.05 235.437 1453.48 238.114 1453.48 241.326V247.109H1410.08V2H1453.48V72.6736C1453.48 75.886 1453.05 78.563 1452.19 80.7047C1451.55 82.8463 1450.37 85.095 1448.66 87.4508L1453.16 90.6632C1460.01 80.5976 1467.41 73.5302 1475.34 69.4611C1483.27 65.1779 1493.02 63.0363 1504.59 63.0363C1520.24 63.0363 1534.06 66.9983 1546.06 74.9223C1558.07 82.8463 1567.39 93.9827 1574.03 108.332C1580.68 122.466 1584 138.636 1584 156.839C1584 175.043 1580.68 191.32 1574.03 205.668C1567.39 219.803 1558.07 230.832 1546.06 238.756C1534.06 246.68 1520.24 250.642 1504.59 250.642ZM1494.63 213.378C1508.34 213.378 1519.38 208.131 1527.74 197.637C1536.1 186.929 1540.28 173.33 1540.28 156.839C1540.28 140.349 1536.1 126.857 1527.74 116.363C1519.38 105.655 1508.34 100.301 1494.63 100.301C1480.91 100.301 1469.66 105.547 1460.87 116.041C1452.3 126.535 1448.01 140.135 1448.01 156.839C1448.01 173.544 1452.3 187.143 1460.87 197.637C1469.66 208.131 1480.91 213.378 1494.63 213.378Z"/></g><defs><filter id="filter0_d_626_92" width="1230" height="317" x="354" y="2" color-interpolation-filters="sRGB" filterUnits="userSpaceOnUse"><feFlood flood-opacity="0" result="BackgroundImageFix"/><feColorMatrix in="SourceAlpha" result="hardAlpha" type="matrix" values="0 0 0 0 0 0 0 0 0 0 0 0 0 0 0 0 0 0 127 0"/><feOffset dy="7"/><feComposite in2="hardAlpha" operator="out"/><feColorMatrix type="matrix" values="0 0 0 0 0.376471 0 0 0 0 0.647059 0 0 0 0 0.980392 0 0 0 0.5 0"/><feBlend in2="BackgroundImageFix" mode="normal" result="effect1_dropShadow_626_92"/><feBlend in="SourceGraphic" in2="effect1_dropShadow_626_92" mode="normal" result="shape"/></filter></defs></svg>