<svg xmlns="http://www.w3.org/2000/svg" width="2144" height="332" fill="none" viewBox="0 0 2144 332"><g filter="url(#filter0_d_622_85)"><path fill="#F9FAFB" d="M354 0.0418108H464.645C489.74 0.0418108 509.598 6.24272 524.178 18.6863C538.757 31.13 546.047 50.1097 546.047 75.6673C546.047 91.7979 542.612 105.75 535.783 117.523C528.954 129.296 519.402 138.304 507.211 144.589C494.977 150.874 480.817 154.016 464.687 154.016H402.473V256.582H354.042V0L354 0.0418108ZM487.687 102.943C494.516 97.1189 497.952 88.6137 497.952 77.3851C497.952 66.1565 494.474 57.9864 487.52 52.1626C480.565 46.3388 470.72 43.406 457.942 43.406H402.473V111.657H457.942C470.929 111.657 480.858 108.766 487.687 102.901V102.943Z"/><path fill="#F9FAFB" d="M608.219 247.867C593.639 239.571 582.369 228.091 574.409 213.385C566.449 198.721 562.469 182.046 562.469 163.443C562.469 146.181 565.988 129.967 573.069 114.842C580.149 99.7166 590.79 87.4405 605.035 78.0136C619.279 68.5866 636.707 63.894 657.32 63.894C674.371 63.894 690.04 67.4134 704.41 74.4942C718.738 81.533 730.301 92.4264 739.057 107.133C747.813 121.839 752.17 140.022 752.17 161.767V171.529H621.374C615.341 171.529 610.481 171.194 606.92 170.524L605.579 175.551C607.381 176.012 608.763 176.892 609.769 178.233C610.774 179.574 611.612 181.501 612.283 183.931C614.084 188.624 615.55 191.891 616.64 193.693C621.122 202.45 627.113 209.237 634.613 214.055C642.112 218.874 650.7 221.304 660.336 221.304C670.642 221.304 679.482 218.664 686.898 213.385C694.313 208.106 699.55 201.319 702.692 193.023H749.112C743.037 212.966 732.396 229.18 717.146 241.624C701.896 254.068 682.415 260.311 658.619 260.311C639.556 260.311 622.756 256.163 608.177 247.867H608.219ZM619.991 138.556C622.673 137.885 625.689 137.55 629.083 137.55H687.61C691.213 137.55 694.397 137.885 697.204 138.556C700.011 139.226 703.195 140.567 706.798 142.578L709.479 137.885C707.929 137.006 706.798 136.168 706.128 135.372C705.457 134.575 704.955 133.738 704.619 132.858C704.284 131.978 704.117 131.391 704.117 131.182C703.237 127.369 701.435 123.682 698.754 120.079C694.481 113.585 688.867 108.599 681.954 105.121C675 101.644 667.249 99.9261 658.744 99.9261C650.24 99.9261 642.531 101.602 635.702 104.954C628.873 108.306 623.301 113.375 619.07 120.079C616.137 123.682 614.252 127.369 613.372 131.182C613.372 131.391 613.162 132.02 612.702 133.025C612.241 134.031 611.696 134.953 611.026 135.707C610.355 136.461 609.35 137.215 608.009 137.885L611.026 142.578C614.377 140.567 617.436 139.226 620.117 138.556H619.991Z"/><path fill="#F9FAFB" d="M928.006 76.7146C940.574 85.0104 950.294 96.616 957.248 111.532C964.203 126.447 967.68 143.416 967.68 162.479C967.68 181.543 964.203 198.511 957.248 213.427C950.294 228.342 940.532 239.948 928.006 248.244C915.437 256.54 900.983 260.688 884.644 260.688C872.536 260.688 862.356 258.509 854.061 254.11C845.765 249.752 838.015 242.294 830.851 231.736L826.158 235.088C827.96 237.56 829.217 239.906 830.013 242.169C830.809 244.431 831.186 247.196 831.186 250.59V324.582H785.771V67.9998H831.186V74.0331C831.186 77.3849 830.809 80.234 830.013 82.6222C829.217 84.9685 827.918 87.3985 826.158 89.8704L830.851 92.8871C838.015 82.3708 845.765 74.9549 854.061 70.6813C862.356 66.4078 872.536 64.271 884.644 64.271C900.983 64.271 915.479 68.4189 928.006 76.7146ZM839.062 119.744C829.971 130.721 825.446 144.966 825.446 162.437C825.446 179.909 829.971 194.154 839.062 205.131C848.153 216.108 859.842 221.597 874.212 221.597C888.582 221.597 900.103 216.066 908.859 204.963C917.615 193.861 921.973 179.699 921.973 162.437C921.973 145.175 917.615 131.014 908.859 119.911C900.103 108.808 888.582 103.278 874.212 103.278C859.842 103.278 848.153 108.766 839.062 119.744Z"/><path fill="#F9FAFB" d="M1004 256.624V0.0419922H1052.43V106.295H1162.41V0.0419922H1210.84V256.624H1162.41V149.701H1052.43V256.624H1004Z"/><path fill="#F9FAFB" d="M1261.57 229.055C1257.97 221.639 1255.75 214.097 1254.83 206.346C1253.95 198.595 1253.49 188.707 1253.49 176.599V67.958H1298.86V176.934C1298.86 186.57 1299.57 194.363 1301.04 200.313C1302.51 206.262 1304.81 211.039 1307.95 214.6C1312.9 220.214 1320.86 223.021 1331.83 223.021C1344.61 223.021 1354.25 219.209 1360.74 211.583C1364.55 207.31 1367.32 201.444 1368.99 193.944C1370.67 186.445 1371.51 176.389 1371.51 163.862V68.0418H1416.92V256.707H1371.51V250.674C1371.51 247.322 1371.88 244.431 1372.68 242.085C1373.48 239.739 1374.78 237.309 1376.54 234.837L1371.84 231.82C1364.68 242.127 1357.05 249.459 1348.97 253.858C1340.88 258.216 1331.37 260.436 1320.4 260.436C1291.03 260.436 1271.42 250.004 1261.53 229.139L1261.57 229.055Z"/><path fill="#F9FAFB" d="M1526.9 253.942C1518.6 249.669 1510.85 242.295 1503.69 231.736L1498.99 234.753C1500.79 237.225 1502.09 239.613 1502.85 242.001C1503.64 244.348 1504.02 247.197 1504.02 250.59V256.624H1458.65V0.0419922H1504.02V74.0334C1504.02 77.3852 1503.64 80.1924 1502.85 82.4549C1502.05 84.7173 1500.75 87.0636 1498.99 89.4937L1503.69 92.8456C1510.85 82.3292 1518.6 74.8714 1526.9 70.4722C1535.19 66.1148 1545.37 63.8942 1557.48 63.8942C1573.82 63.8942 1588.31 68.0421 1600.84 76.3378C1613.41 84.6336 1623.13 96.2392 1630.08 111.155C1637.04 126.07 1640.52 143.039 1640.52 162.102C1640.52 181.166 1637.04 198.135 1630.08 213.05C1623.13 227.966 1613.37 239.571 1600.84 247.867C1588.27 256.163 1573.82 260.311 1557.48 260.311C1545.37 260.311 1535.19 258.174 1526.9 253.9V253.942ZM1581.69 204.671C1590.45 193.568 1594.81 179.406 1594.81 162.144C1594.81 144.882 1590.45 130.721 1581.69 119.618C1572.94 108.515 1561.42 102.985 1547.05 102.985C1532.68 102.985 1520.99 108.473 1511.9 119.451C1502.81 130.428 1498.28 144.673 1498.28 162.144C1498.28 179.616 1502.81 193.861 1511.9 204.838C1520.99 215.815 1532.68 221.304 1547.05 221.304C1561.42 221.304 1572.94 215.773 1581.69 204.671Z"/></g><path fill="#E5E7EB" d="M23 172.628C23 176.385 25.1064 179.825 28.4529 181.534L269.453 304.573C276.107 307.97 284 303.137 284 295.667V266.276C284 262.438 281.804 258.94 278.349 257.271L85.1269 163.957C84.6921 163.747 84.2381 164.207 84.4536 164.639C84.6922 165.117 85.413 164.948 85.413 164.413V160.587C85.413 160.052 84.6922 159.883 84.4536 160.361C84.2381 160.793 84.6921 161.253 85.1269 161.043L278.349 67.7292C281.804 66.0604 284 62.5616 284 58.7243V29.3332C284 21.8627 276.107 17.0299 269.453 20.4268L28.453 143.466C25.1064 145.175 23 148.615 23 152.372V172.628Z"/><path fill="#D1D5DB" d="M0 172.934C0 176.696 2.11169 180.14 5.46484 181.846L260.465 311.604C267.118 314.989 275 310.156 275 302.691V270.676C275 266.834 272.799 263.332 269.337 261.666L65.459 163.53C65.0011 163.31 64.5238 163.794 64.7512 164.249C65.0029 164.752 65.7608 164.573 65.7608 164.01V159.99C65.7608 159.427 65.0029 159.248 64.7512 159.751C64.5238 160.206 65.0011 160.69 65.459 160.47L269.337 62.3345C272.799 60.6682 275 57.1659 275 53.324V21.3088C275 13.8441 267.118 9.01092 260.465 12.3963L5.46484 142.154C2.11169 143.86 0 147.304 0 151.066V172.934Z"/><path fill="#E5E7EB" d="M2121 172.628C2121 176.385 2118.89 179.825 2115.55 181.534L1874.55 304.573C1867.89 307.97 1860 303.137 1860 295.667V266.276C1860 262.438 1862.2 258.94 1865.65 257.271L2058.87 163.957C2059.31 163.747 2059.76 164.207 2059.55 164.639C2059.31 165.117 2058.59 164.948 2058.59 164.413V160.587C2058.59 160.052 2059.31 159.883 2059.55 160.361C2059.76 160.793 2059.31 161.253 2058.87 161.043L1865.65 67.7292C1862.2 66.0604 1860 62.5616 1860 58.7243V29.3332C1860 21.8627 1867.89 17.0299 1874.55 20.4268L2115.55 143.466C2118.89 145.175 2121 148.615 2121 152.372V172.628Z"/><path fill="#D1D5DB" d="M2144 172.934C2144 176.696 2141.89 180.14 2138.54 181.846L1883.54 311.604C1876.88 314.989 1869 310.156 1869 302.691V270.676C1869 266.834 1871.2 263.332 1874.66 261.666L2078.54 163.53C2079 163.31 2079.48 163.794 2079.25 164.249C2079 164.752 2078.24 164.573 2078.24 164.01V159.99C2078.24 159.427 2079 159.248 2079.25 159.751C2079.48 160.206 2079 160.69 2078.54 160.47L1874.66 62.3345C1871.2 60.6682 1869 57.1659 1869 53.324V21.3088C1869 13.8441 1876.88 9.01092 1883.54 12.3963L2138.54 142.154C2141.89 143.86 2144 147.304 2144 151.066V172.934Z"/><path fill="#E5E7EB" d="M1780.94 14C1787.52 14 1792.31 20.2543 1790.59 26.6109L1715.67 303.611C1714.49 307.972 1710.53 311 1706.01 311H1682.06C1675.48 311 1670.69 304.746 1672.41 298.389L1747.33 21.3891C1748.51 17.0285 1752.47 14 1756.99 14H1780.94Z"/><path fill="#D1D5DB" d="M1791.93 9C1798.52 9 1803.3 15.2574 1801.58 21.6149L1724.1 307.615C1722.92 311.974 1718.96 315 1714.45 315H1689.07C1682.48 315 1677.7 308.743 1679.42 302.385L1756.9 16.3851C1758.08 12.0264 1762.04 9 1766.55 9H1791.93Z"/><defs><filter id="filter0_d_622_85" width="1286.52" height="331.582" x="354" y="0" color-interpolation-filters="sRGB" filterUnits="userSpaceOnUse"><feFlood flood-opacity="0" result="BackgroundImageFix"/><feColorMatrix in="SourceAlpha" result="hardAlpha" type="matrix" values="0 0 0 0 0 0 0 0 0 0 0 0 0 0 0 0 0 0 127 0"/><feOffset dy="7"/><feComposite in2="hardAlpha" operator="out"/><feColorMatrix type="matrix" values="0 0 0 0 0.819608 0 0 0 0 0.835294 0 0 0 0 0.858824 0 0 0 0.5 0"/><feBlend in2="BackgroundImageFix" mode="normal" result="effect1_dropShadow_622_85"/><feBlend in="SourceGraphic" in2="effect1_dropShadow_622_85" mode="normal" result="shape"/></filter></defs></svg>